<svg xmlns="http://www.w3.org/2000/svg" xmlns:xlink="http://www.w3.org/1999/xlink" id="Layer_1" x="0" y="0" version="1.1" viewBox="0 0 24 24" style="enable-background:new 0 0 24 24" xml:space="preserve"><style type="text/css">.st0{fill:#df0}</style><path d="M3,5.5C3,4.7,3.7,4,4.5,4S6,4.7,6,5.5S5.3,7,4.5,7S3,6.3,3,5.5z M8.5,7C9.3,7,10,6.3,10,5.5S9.3,4,8.5,4	S7,4.7,7,5.5S7.7,7,8.5,7z M24,6v12c0,2.8-2.2,5-5,5H5c-2.8,0-5-2.2-5-5V6c0-2.8,2.2-5,5-5h14C21.8,1,24,3.2,24,6z M2,6v2h20V6	c0-1.7-1.3-3-3-3H5C3.3,3,2,4.3,2,6z M14,10H2v4.5h12V10z M5,21h9v-4.5H2V18C2,19.7,3.3,21,5,21z M22,18v-8h-6v11h3	C20.7,21,22,19.7,22,18z" class="st0"/></svg>