<svg xmlns="http://www.w3.org/2000/svg" xmlns:xlink="http://www.w3.org/1999/xlink" id="Outline" x="0" y="0" version="1.1" viewBox="0 0 512 512" style="enable-background:new 0 0 512 512" xml:space="preserve"><style type="text/css">.st0{fill:#df0}</style><g><path d="M505.7,475.6l-23-23l-36.9-36.8l59.5-59.5c8.3-8.3,8.3-21.8,0-30.2c-2.2-2.2-4.8-3.9-7.8-4.9l-191.3-69.4 c-22.2-8-46.6,3.5-54.6,25.6c-3.4,9.4-3.4,19.6,0,29l69.6,191.3c2.5,6.8,8.3,12,15.4,13.5c1.5,0.3,3.1,0.5,4.6,0.5 c5.7,0,11.1-2.2,15.1-6.3l59.4-59.6l36.8,36.8l23,23c8.5,8.2,22,8,30.2-0.5C513.7,496.9,513.7,483.8,505.7,475.6L505.7,475.6z M349.9,451.5l-58.1-159.8l159.8,58.1L349.9,451.5z" class="st0"/><path d="M213.3,426.7C95.5,426.7,0,331.2,0,213.3S95.5,0,213.3,0s213.3,95.5,213.3,213.3c0,11.8-9.6,21.3-21.3,21.3 s-21.3-9.6-21.3-21.3c0-94.3-76.4-170.7-170.7-170.7S42.7,119.1,42.7,213.3S119.1,384,213.3,384c11.8,0,21.3,9.6,21.3,21.3 S225.1,426.7,213.3,426.7z" class="st0"/><path d="M172.5,333.2c-2.8,0-5.6-0.5-8.2-1.6c-65.3-27.1-96.2-102-69.1-167.3s102-96.2,167.3-69.1 c31.3,13,56.2,37.9,69.2,69.3c4.7,10.8-0.3,23.4-11.1,28.1c-10.8,4.7-23.4-0.3-28.1-11.1c-0.1-0.2-0.2-0.5-0.3-0.7 c-18.1-43.5-68-64.2-111.5-46.1s-64.2,68-46.1,111.5c8.6,20.8,25.2,37.4,46,46.1c10.9,4.5,16.1,17,11.6,27.9 C188.9,328.1,181.1,333.3,172.5,333.2L172.5,333.2z" class="st0"/></g></svg>