<svg xmlns="http://www.w3.org/2000/svg" xmlns:xlink="http://www.w3.org/1999/xlink" id="Outline" x="0" y="0" version="1.1" viewBox="0 0 512 512" style="enable-background:new 0 0 512 512" xml:space="preserve"><style type="text/css">.st0{fill:#df0}</style><path d="M74.7,234.7h170.7c41.2,0,74.7-33.4,74.7-74.7V74.7C320,33.4,286.6,0,245.3,0H74.7C33.4,0,0,33.4,0,74.7V160	C0,201.2,33.4,234.7,74.7,234.7z M74.7,42.7h170.7c17.7,0,32,14.3,32,32V160c0,17.7-14.3,32-32,32H74.7c-17.7,0-32-14.3-32-32V74.7	C42.7,57,57,42.7,74.7,42.7z" class="st0"/><path d="M437.3,0L437.3,0c-41.2,0-74.7,33.4-74.7,74.7V160c0,41.2,33.4,74.7,74.7,74.7h0c41.2,0,74.7-33.4,74.7-74.7	V74.7C512,33.4,478.6,0,437.3,0z M437.3,192L437.3,192c-17.7,0-32-14.3-32-32V74.7c0-17.7,14.3-32,32-32h0c17.7,0,32,14.3,32,32V160	C469.3,177.7,455,192,437.3,192z" class="st0"/><path d="M74.7,277.3L74.7,277.3C33.4,277.3,0,310.8,0,352v85.3C0,478.6,33.4,512,74.7,512h0c41.2,0,74.7-33.4,74.7-74.7	V352C149.3,310.8,115.9,277.3,74.7,277.3z M74.7,469.3L74.7,469.3c-17.7,0-32-14.3-32-32V352c0-17.7,14.3-32,32-32h0	c17.7,0,32,14.3,32,32v85.3C106.7,455,92.3,469.3,74.7,469.3z" class="st0"/><path d="M437.3,277.3H266.7c-41.2,0-74.7,33.4-74.7,74.7v85.3c0,41.2,33.4,74.7,74.7,74.7h170.7	c41.2,0,74.7-33.4,74.7-74.7V352C512,310.8,478.6,277.3,437.3,277.3z M437.3,469.3H266.7c-17.7,0-32-14.3-32-32V352	c0-17.7,14.3-32,32-32h170.7c17.7,0,32,14.3,32,32v85.3C469.3,455,455,469.3,437.3,469.3z" class="st0"/></svg>